<svg id="Line" height="512" viewBox="0 0 64 64" width="512" xmlns="http://www.w3.org/2000/svg"><path d="m60.542 47.4c-11.322-6.541-27.762-6.541-39.084 0a4.979 4.979 0 0 0 -2.458 4.31v7.79a3 3 0 0 0 3 3h38a3 3 0 0 0 3-3v-7.79a4.979 4.979 0 0 0 -2.458-4.31zm-29.042 10.1a4.505 4.505 0 0 1 -4.5-4.5 1 1 0 0 1 2 0 2.5 2.5 0 1 0 2.5-2.5 1 1 0 0 1 0-2 4.5 4.5 0 0 1 0 9zm16.5 0a5 5 0 0 1 0-10 1 1 0 0 1 0 2 3 3 0 1 0 3 3 1 1 0 0 1 2 0 5.006 5.006 0 0 1 -5 5z" fill="#c4a2fc"/><path d="m58 28.918a10 10 0 1 0 -10 10 10.012 10.012 0 0 0 10-10zm-7.5-6a1 1 0 0 1 0 2 1.5 1.5 0 1 0 1.5 1.5 1 1 0 0 1 2 0 3.5 3.5 0 1 1 -3.5-3.5z" fill="#c4a2fc"/><g fill="#151a6a"><path d="m7.553 18.4a1 1 0 1 0 .894-1.79 9.8 9.8 0 0 1 -5.447-8.818v-3.292a1 1 0 0 1 1-1h3.292a9.8 9.8 0 0 1 8.813 5.447 1 1 0 1 0 1.79-.894 11.791 11.791 0 0 0 -10.603-6.553h-3.292a3 3 0 0 0 -3 3v3.292a11.791 11.791 0 0 0 6.553 10.608z"/><path d="m13.2 12.1a1 1 0 1 0 1.6-1.2 9.411 9.411 0 0 0 -7.8-4.4 1 1 0 0 0 -1 1c0 5.173 4.244 7.622 4.4 7.8a1 1 0 0 0 1.2-1.6 7.609 7.609 0 0 1 -3.514-5.114 7.612 7.612 0 0 1 5.114 3.514z"/><path d="m44.561 10.8a4.989 4.989 0 0 0 -1.368-4.517l-3.072-3.076a3 3 0 0 0 -4.242 0l-6.879 6.879-.879-.879a3 3 0 0 0 -4.242 0l-15.172 15.172a3 3 0 0 0 0 4.242l.879.879-6.879 6.879a3 3 0 0 0 0 4.242l3.072 3.072a4.987 4.987 0 0 0 3.532 1.465 5.068 5.068 0 0 0 .985-.1l12.604-2.518a39.327 39.327 0 0 0 25.1 8.96 3 3 0 0 0 3-3 39.327 39.327 0 0 0 -8.96-25.1zm-7.268-6.179a1 1 0 0 1 1.414 0l3.072 3.072a3 3 0 0 1 .821 2.707l-2.222 11.11c-.324-.348-.647-.7-.984-1.034l-8.98-8.976zm-10.586 6 3.879 3.879-1.586 1.586-4.586-4.586.879-.879a1 1 0 0 1 1.414 0zm-.707 8.465-4.586-4.586 1.586-1.586 4.586 4.586zm-3 3-4.586-4.586 1.586-1.586 4.586 4.586zm-3 3-4.586-4.586 1.586-1.586 4.586 4.586zm-3 3-4.586-4.586 1.586-1.586 4.586 4.586zm-6.879-2.293.879-.879 4.586 4.586-1.586 1.586-3.879-3.879a1 1 0 0 1 0-1.414zm-.221 17.307a3 3 0 0 1 -2.71-.821l-3.069-3.072a1 1 0 0 1 0-1.414l6.879-6.879 8.979 8.98c.338.337.686.66 1.034.984zm38.1 6.4a37.377 37.377 0 0 1 -26.606-11.021l-5.98-5.979 16.586-16.586 5.979 5.98a37.377 37.377 0 0 1 11.021 26.606 1 1 0 0 1 -1 1z"/><path d="m32.707 22.793a1 1 0 0 0 -1.414 0l-9 9a1 1 0 0 0 0 1.414l2.636 2.636a22.578 22.578 0 0 0 16.071 6.657 1 1 0 0 0 1-1 22.578 22.578 0 0 0 -6.657-16.071zm-6.364 11.636-1.929-1.929 7.586-7.586 1.929 1.929a20.576 20.576 0 0 1 6.047 13.633 20.576 20.576 0 0 1 -13.633-6.047z"/></g></svg>