<svg id="Line" height="512" viewBox="0 0 64 64" width="512" xmlns="http://www.w3.org/2000/svg"><g fill="#c4a2fc"><path d="m18 51.865v-5.735a1 1 0 0 0 -.485-.857l-4.515-2.682v12.709l4.533-2.588a1 1 0 0 0 .467-.847z"/><path d="m60 35h-7v28h7a3 3 0 0 0 3-3v-22a3 3 0 0 0 -3-3zm-3 16a2 2 0 1 1 2-2 2 2 0 0 1 -2 2z"/><path d="m35 40a1 1 0 0 0 1 1 3 3 0 0 1 3 3 1 1 0 0 0 2 0 5.008 5.008 0 0 0 -5-5 .99.99 0 0 0 -1 1z"/><path d="m36 28a1 1 0 0 0 0 2 3 3 0 0 1 3 3 1 1 0 0 0 2 0 5.006 5.006 0 0 0 -5-5z"/><path d="m36 19a3 3 0 0 1 3 3 1 1 0 0 0 2 0 5.005 5.005 0 0 0 -5-5 1 1 0 0 0 0 2z"/><path d="m45 33a8.95 8.95 0 0 0 -1.887-5.5 9 9 0 1 0 -14.232 0 8.951 8.951 0 0 0 -1.881 5.5 9.435 9.435 0 0 0 .22 2h-11.22a3 3 0 0 0 -3 3v2.26l5.54 3.289a3.041 3.041 0 0 1 1.46 2.582v5.73a3.028 3.028 0 0 1 -1.46 2.58l-5.54 3.159v2.4a3 3 0 0 0 3 3h35v-28h-6.22a9.5 9.5 0 0 0 .22-2zm-9-18a6.991 6.991 0 0 1 5.7 11.044 8.991 8.991 0 0 0 -11.409 0 6.99 6.99 0 0 1 5.709-11.044zm7 29a7 7 0 1 1 -7-7 7.008 7.008 0 0 1 7 7zm-1.3-6.959a8.979 8.979 0 0 0 -11.409.01 7 7 0 1 1 12.423-2.051 6.575 6.575 0 0 1 -1.014 2.042z"/></g><path d="m29.62 16.521a2.994 2.994 0 0 0 1.387-2.521 2.962 2.962 0 0 0 -.647-1.838c3.3-2.928 3.763-7.359 1.787-9.576-2.112-2.379-5.721-1.4-7.957.905a4.769 4.769 0 0 0 -8.38 0 6.878 6.878 0 0 0 -4.8-2.277h-.01c-4.992.008-5.928 6.886-1.36 10.948a2.962 2.962 0 0 0 -.647 1.838 2.994 2.994 0 0 0 1.387 2.521c-2.774 4.472-12.732 21.579-8.227 29.913 1.639 3.03 4.916 4.566 9.741 4.566h16.212c4.825 0 8.1-1.536 9.741-4.566 4.505-8.334-5.453-25.441-8.227-29.913zm-18.626-2.521a1 1 0 0 1 1-1h16.01a1 1 0 1 1 0 2h-16.004a1 1 0 0 1 -1.006-1zm.006-10.786h.005c1.683 0 3.319 1.336 4.258 2.805a1 1 0 0 0 1.823-.337 3.124 3.124 0 0 1 2.914-2.682 3.124 3.124 0 0 1 2.913 2.682 1 1 0 0 0 1.823.337c1.369-2.142 4.395-3.816 5.915-2.1 1.4 1.575.5 5.2-2.022 7.084h-17.258c-3.34-2.494-3.665-7.784-.371-7.789zm25.086 42.269c-1.262 2.333-3.947 3.517-7.98 3.517h-16.212c-4.033 0-6.717-1.184-7.98-3.517-4.156-7.683 6.605-25.423 8.529-28.483h15.114c1.925 3.059 12.687 20.793 8.529 28.483z" fill="#151a6a"/><path d="m21.846 32.792c-.278-.093-.562-.191-.845-.291v-4.637a3.449 3.449 0 0 1 1.293.583 1 1 0 0 0 1.3-1.516 5.47 5.47 0 0 0 -2.594-1.105v-.826a1 1 0 0 0 -2 0v.866c-.19.036-.385.08-.585.137a4.08 4.08 0 0 0 -2.915 3.224 3.451 3.451 0 0 0 1.247 3.451 10.489 10.489 0 0 0 2.253 1.202v5.838a4.536 4.536 0 0 1 -2.477-.83 1 1 0 1 0 -1.049 1.7 6.517 6.517 0 0 0 3.526 1.127v1.285a1 1 0 0 0 2 0v-1.388a4.985 4.985 0 0 0 3.947-4.027 4.247 4.247 0 0 0 -3.101-4.793zm-3.913-1.723a1.5 1.5 0 0 1 -.467-1.485 2.1 2.1 0 0 1 1.494-1.657c.014 0 .026 0 .039-.008v3.769a6.9 6.9 0 0 1 -1.066-.619zm5.038 6.2a2.922 2.922 0 0 1 -1.971 2.273v-4.926c1.623.547 2.153 1.508 1.971 2.655z" fill="#151a6a"/></svg>