<svg id="Line" height="512" viewBox="0 0 64 64" width="512" xmlns="http://www.w3.org/2000/svg"><g fill="#c4a2fc"><path d="m38 63a25 25 0 1 1 25-25 25.028 25.028 0 0 1 -25 25zm0-48a23 23 0 1 0 23 23 23.025 23.025 0 0 0 -23-23z"/><path d="m33.714 31.214a2.835 2.835 0 0 0 .9 2.827 12.245 12.245 0 0 0 2.386 1.333v-7.252a3.754 3.754 0 0 0 -3.286 3.092z"/><path d="m39 38.306v8.97a4.981 4.981 0 0 0 3.942-4.058c.487-3.002-1.633-4.093-3.942-4.912z"/><path d="m38 17a21 21 0 1 0 21 21 21.024 21.024 0 0 0 -21-21zm6.917 26.538a7.061 7.061 0 0 1 -5.917 5.762v2.7a1 1 0 0 1 -2 0v-2.607a9.248 9.248 0 0 1 -5.532-1.662 1 1 0 1 1 1.064-1.693 7.305 7.305 0 0 0 4.468 1.362v-9.852a15.914 15.914 0 0 1 -3.592-1.909 4.81 4.81 0 0 1 -1.661-4.787 5.767 5.767 0 0 1 5.253-4.752v-2.1a1 1 0 0 1 2 0v2.052a7.667 7.667 0 0 1 4.073 1.627 1 1 0 0 1 -1.322 1.5 5.573 5.573 0 0 0 -2.751-1.121v8.119c3.369 1.246 6.666 2.729 5.917 7.361z"/></g><path d="m49.171 30.757a4.492 4.492 0 0 0 -6.24-.117c-2.984 2.749-8.762 7.36-13.931 7.36a4.974 4.974 0 0 1 -2.073-.279c.1-.246.533-.987 2.407-2.387a3.724 3.724 0 0 0 -3.793-6.364 32.6 32.6 0 0 0 -9.159 6.1 3.025 3.025 0 0 1 -2.161.93h-3.4a3 3 0 0 0 -2.821-2h-4a3 3 0 0 0 -3 3v10a3 3 0 0 0 3 3h4a2.987 2.987 0 0 0 2.171-.94 91.025 91.025 0 0 0 16.829 1.94c6.209 0 16.47-8.613 22.033-13.747a4.5 4.5 0 0 0 .138-6.496zm-40.171 16.243a1 1 0 0 1 -1 1h-4a1 1 0 0 1 -1-1v-10a1 1 0 0 1 1-1h4a1 1 0 0 1 1 1zm38.678-11.218c-4.307 3.975-14.943 13.218-20.678 13.218a89.523 89.523 0 0 1 -16.018-1.817c0-.062.018-.12.018-.183v-9h3.221a5.015 5.015 0 0 0 3.585-1.523 31.288 31.288 0 0 1 8.581-5.695 1.724 1.724 0 0 1 1.749 2.95c-2.6 1.943-3.57 3.375-3.148 4.646.484 1.454 2.522 1.622 4.012 1.622 5.849 0 12.088-4.943 15.286-7.89a2.5 2.5 0 1 1 3.392 3.672z" fill="#151a6a"/><path d="m26 19a6 6 0 1 1 6-6 6.006 6.006 0 0 1 -6 6zm0-10a4 4 0 1 0 4 4 4 4 0 0 0 -4-4z" fill="#151a6a"/><path d="m26 25a12 12 0 1 0 -12-12 12.013 12.013 0 0 0 12 12zm0-22a10 10 0 1 1 -10 10 10.011 10.011 0 0 1 10-10z" fill="#151a6a"/></svg>