<?xml version="1.0" encoding="iso-8859-1"?>
<!-- Generator: Adobe Illustrator 22.1.0, SVG Export Plug-In . SVG Version: 6.00 Build 0)  -->
<svg xmlns="http://www.w3.org/2000/svg" xmlns:xlink="http://www.w3.org/1999/xlink" version="1.1" id="Layer_1_1_" x="0px" y="0px" viewBox="0 0 64 64" style="enable-background:new 0 0 64 64;" xml:space="preserve" width="512" height="512">
<linearGradient id="SVGID_1_" gradientUnits="userSpaceOnUse" x1="32" y1="63" x2="32" y2="1">
	<stop offset="0" style="stop-color:#9F2FFF"/>
	<stop offset="1" style="stop-color:#0BB1D3"/>
</linearGradient>
<path style="fill:url(#SVGID_1_);" d="M21,49h-6v-2h6V49z M63,46v14c0,1.654-1.346,3-3,3H42c-1.654,0-3-1.346-3-3v-4h-4.184  c-0.414,1.161-1.514,2-2.816,2s-2.402-0.839-2.816-2H25v4c0,1.654-1.346,3-3,3H4c-1.654,0-3-1.346-3-3V50c0-1.654,1.346-3,3-3h5.586  l3.121-3.121C13.273,43.312,14.027,43,14.829,43H22c1.654,0,3,1.346,3,3v8h4.184c0.302-0.847,0.969-1.514,1.816-1.816V41h-7  c-1.654,0-3-1.346-3-3v-2c0-1.302,0.839-2.402,2-2.816v-2.369c-1.161-0.414-2-1.514-2-2.816h-6c-4.962,0-9-4.038-9-9s4.038-9,9-9  c0.348,0,0.696,0.02,1.042,0.06C17.452,7.57,20.105,6,23,6c0.239,0,0.482,0.012,0.734,0.038C26.192,2.872,29.985,1,34,1  c5.007,0,9.495,2.829,11.67,7.28C46.438,8.094,47.218,8,48,8c5.514,0,10,4.486,10,10s-4.486,10-10,10h-5  c0,1.302-0.839,2.402-2,2.816v2.369c1.161,0.414,2,1.514,2,2.816v2c0,1.654-1.346,3-3,3h-7v11.184  c0.847,0.302,1.514,0.969,1.816,1.816H39v-4c0-1.654,1.346-3,3-3h5.586l3.121-3.121C51.273,43.312,52.027,43,52.829,43H60  C61.654,43,63,44.346,63,46z M25,31v2h14v-2H25z M41,26c0-0.551-0.449-1-1-1H24c-0.551,0-1,0.449-1,1v2c0,0.551,0.449,1,1,1h16  c0.551,0,1-0.449,1-1V26z M39,23v-2H25v2H39z M41,18v-2c0-0.551-0.449-1-1-1H24c-0.551,0-1,0.449-1,1v2c0,0.551,0.449,1,1,1h16  C40.551,19,41,18.551,41,18z M21,26c0-1.302,0.839-2.402,2-2.816v-2.369c-1.161-0.414-2-1.514-2-2.816v-2c0-1.654,1.346-3,3-3h16  c1.654,0,3,1.346,3,3v2c0,1.302-0.839,2.402-2,2.816v2.369c1.161,0.414,2,1.514,2,2.816h5c4.411,0,8-3.589,8-8s-3.589-8-8-8  c-0.863,0-1.727,0.145-2.566,0.429l-0.893,0.302l-0.355-0.873C42.491,5.692,38.493,3,34,3c-3.57,0-6.933,1.751-8.996,4.684  L24.641,8.2l-0.623-0.106C23.648,8.031,23.315,8,23,8c-2.366,0-4.518,1.4-5.481,3.568l-0.326,0.734l-0.788-0.161  C15.946,12.047,15.473,12,15,12c-3.86,0-7,3.14-7,7s3.14,7,7,7H21z M24,39h16c0.551,0,1-0.448,1-1v-2c0-0.552-0.449-1-1-1H24  c-0.551,0-1,0.448-1,1v2C23,38.552,23.449,39,24,39z M3,50v1h20v-5c0-0.552-0.449-1-1-1h-7.171c-0.267,0-0.519,0.104-0.708,0.293  L10.414,49H4C3.449,49,3,49.448,3,50z M23,60v-7H3v7c0,0.552,0.449,1,1,1h18C22.551,61,23,60.552,23,60z M33,55c0-0.552-0.449-1-1-1  s-1,0.448-1,1s0.449,1,1,1S33,55.552,33,55z M41,50v1h20v-5c0-0.552-0.449-1-1-1h-7.171c-0.267,0-0.519,0.104-0.708,0.293L48.414,49  H42C41.449,49,41,49.448,41,50z M61,60v-7H41v7c0,0.552,0.449,1,1,1h18C60.551,61,61,60.552,61,60z M59,47h-6v2h6V47z M54,18  c0-3.309-2.691-6-6-6v2c2.206,0,4,1.794,4,4s-1.794,4-4,4v2C51.309,24,54,21.309,54,18z M10,19h2c0-1.654,1.346-3,3-3v-2  C12.243,14,10,16.243,10,19z M34,7c1.87,0,3.627,0.728,4.95,2.05l1.414-1.414C38.664,5.936,36.404,5,34,5s-4.664,0.936-6.364,2.636  L29.05,9.05C30.373,7.728,32.13,7,34,7z M7,30.414l2.293,2.293l1.414-1.414L6,26.586l-4.707,4.707l1.414,1.414L5,30.414V40h2V30.414  z M5,44h2v-2H5V44z M57,28v9.586l-2.293-2.293l-1.414,1.414L58,41.414l4.707-4.707l-1.414-1.414L59,37.586V28H57z M57,26h2v-2h-2V26  z"/>
</svg>
